<svg id="visual" viewBox="0 0 900 600" width="900" height="600" xmlns="http://www.w3.org/2000/svg" xmlns:xlink="http://www.w3.org/1999/xlink" version="1.1"><rect x="0" y="0" width="900" height="600" fill="#e57c00"></rect><defs><linearGradient id="grad1_0" x1="33.3%" y1="100%" x2="100%" y2="0%"><stop offset="20%" stop-color="#ffaa5f" stop-opacity="1"></stop><stop offset="80%" stop-color="#ffaa5f" stop-opacity="1"></stop></linearGradient></defs><defs><linearGradient id="grad1_1" x1="33.3%" y1="100%" x2="100%" y2="0%"><stop offset="20%" stop-color="#ffaa5f" stop-opacity="1"></stop><stop offset="80%" stop-color="#f39339" stop-opacity="1"></stop></linearGradient></defs><defs><linearGradient id="grad1_2" x1="33.3%" y1="100%" x2="100%" y2="0%"><stop offset="20%" stop-color="#e57c00" stop-opacity="1"></stop><stop offset="80%" stop-color="#f39339" stop-opacity="1"></stop></linearGradient></defs><defs><linearGradient id="grad2_0" x1="0%" y1="100%" x2="66.7%" y2="0%"><stop offset="20%" stop-color="#ffaa5f" stop-opacity="1"></stop><stop offset="80%" stop-color="#ffaa5f" stop-opacity="1"></stop></linearGradient></defs><defs><linearGradient id="grad2_1" x1="0%" y1="100%" x2="66.7%" y2="0%"><stop offset="20%" stop-color="#f39339" stop-opacity="1"></stop><stop offset="80%" stop-color="#ffaa5f" stop-opacity="1"></stop></linearGradient></defs><defs><linearGradient id="grad2_2" x1="0%" y1="100%" x2="66.7%" y2="0%"><stop offset="20%" stop-color="#f39339" stop-opacity="1"></stop><stop offset="80%" stop-color="#e57c00" stop-opacity="1"></stop></linearGradient></defs><g transform="translate(900, 600)"><path d="M-486.7 0C-447.6 -33.2 -408.4 -66.5 -397 -106.4C-385.5 -146.3 -401.8 -192.9 -388 -224C-374.2 -255.1 -330.3 -270.9 -304.1 -304.1C-277.8 -337.3 -269.1 -387.9 -242 -419.2C-214.9 -450.4 -169.4 -462.1 -126 -470.2C-82.6 -478.2 -41.3 -482.5 0 -486.7L0 0Z" fill="#ec8823"></path><path d="M-324.5 0C-298.4 -22.2 -272.3 -44.3 -264.7 -70.9C-257 -97.5 -267.9 -128.6 -258.7 -149.3C-249.5 -170.1 -220.2 -180.6 -202.7 -202.7C-185.2 -224.8 -179.4 -258.6 -161.3 -279.4C-143.3 -300.3 -112.9 -308.1 -84 -313.4C-55.1 -318.8 -27.5 -321.6 0 -324.5L0 0Z" fill="#f99e4c"></path><path d="M-162.2 0C-149.2 -11.1 -136.1 -22.2 -132.3 -35.5C-128.5 -48.8 -133.9 -64.3 -129.3 -74.7C-124.7 -85 -110.1 -90.3 -101.4 -101.4C-92.6 -112.4 -89.7 -129.3 -80.7 -139.7C-71.6 -150.1 -56.5 -154 -42 -156.7C-27.5 -159.4 -13.8 -160.8 0 -162.2L0 0Z" fill="#ffaa5f"></path></g><g transform="translate(0, 0)"><path d="M486.7 0C437.4 28.7 388 57.4 388.3 104C388.6 150.7 438.5 215.4 421.5 243.4C404.6 271.3 320.7 262.5 277.2 277.2C233.6 291.9 230.4 330.1 212.5 368.1C194.6 406.1 162.1 443.9 124.2 463.6C86.4 483.4 43.2 485.1 0 486.7L0 0Z" fill="#ec8823"></path><path d="M324.5 0C291.6 19.1 258.7 38.2 258.9 69.4C259.1 100.5 292.3 143.6 281 162.2C269.7 180.9 213.8 175 184.8 184.8C155.8 194.6 153.6 220 141.7 245.4C129.7 270.7 108.1 295.9 82.8 309.1C57.6 322.3 28.8 323.4 0 324.5L0 0Z" fill="#f99e4c"></path><path d="M162.2 0C145.8 9.6 129.3 19.1 129.4 34.7C129.5 50.2 146.2 71.8 140.5 81.1C134.9 90.4 106.9 87.5 92.4 92.4C77.9 97.3 76.8 110 70.8 122.7C64.9 135.4 54 148 41.4 154.5C28.8 161.1 14.4 161.7 0 162.2L0 0Z" fill="#ffaa5f"></path></g></svg>